<?xml version="1.0" encoding="UTF-8"?>
<svg width="200px" height="200px" viewBox="0 0 200 200" version="1.1" xmlns="http://www.w3.org/2000/svg" xmlns:xlink="http://www.w3.org/1999/xlink">
    <title>Benefits Survey Icon</title>
    <defs>
        <linearGradient x1="0%" y1="0%" x2="100%" y2="100%" id="linearGradient">
            <stop stop-color="#A855F7" offset="0%"></stop>
            <stop stop-color="#EC4899" offset="100%"></stop>
        </linearGradient>
    </defs>
    <g id="Benefits-Survey-Icon" stroke="none" stroke-width="1" fill="none" fill-rule="evenodd">
        <!-- Background shape -->
        <circle id="Background" fill="#FFFFFF" cx="100" cy="100" r="90"></circle>
        
        <!-- Survey form outline -->
        <rect id="Form" fill="#FFFFFF" x="40" y="30" width="120" height="140" rx="8" stroke="url(#linearGradient)" stroke-width="4"></rect>
        
        <!-- Form header -->
        <rect id="Header" fill="url(#linearGradient)" x="50" y="40" width="100" height="20" rx="4"></rect>
        
        <!-- Form lines -->
        <rect id="Line-1" fill="#E2E8F0" x="50" y="70" width="100" height="6" rx="3"></rect>
        <rect id="Line-2" fill="#E2E8F0" x="50" y="86" width="100" height="6" rx="3"></rect>
        <rect id="Line-3" fill="#E2E8F0" x="50" y="102" width="70" height="6" rx="3"></rect>
        
        <!-- Checkboxes -->
        <rect id="Checkbox-1" stroke="url(#linearGradient)" stroke-width="2" x="50" y="120" width="16" height="16" rx="3"></rect>
        <path d="M54,128 L58,132 L62,124" id="Check-1" stroke="#A855F7" stroke-width="2" stroke-linecap="round" stroke-linejoin="round"></path>
        
        <rect id="Checkbox-2" stroke="url(#linearGradient)" stroke-width="2" x="50" y="145" width="16" height="16" rx="3"></rect>
        
        <!-- Checkbox labels -->
        <rect id="Label-1" fill="#E2E8F0" x="75" y="125" width="60" height="6" rx="3"></rect>
        <rect id="Label-2" fill="#E2E8F0" x="75" y="150" width="60" height="6" rx="3"></rect>
        
        <!-- Decorative elements -->
        <circle id="Dot-1" fill="#A855F7" opacity="0.2" cx="30" cy="40" r="10"></circle>
        <circle id="Dot-2" fill="#EC4899" opacity="0.2" cx="170" cy="40" r="15"></circle>
        <circle id="Dot-3" fill="#A855F7" opacity="0.2" cx="30" cy="160" r="15"></circle>
        <circle id="Dot-4" fill="#EC4899" opacity="0.2" cx="170" cy="160" r="10"></circle>
    </g>
</svg>