<?xml version="1.0" encoding="UTF-8"?>
<svg width="600" height="300" viewBox="0 0 600 300" fill="none" xmlns="http://www.w3.org/2000/svg">
  <!-- Background gradient -->
  <rect width="600" height="300" rx="20" fill="url(#paint0_linear)" />
  
  <!-- Abstract shape elements -->
  <circle cx="500" cy="150" r="80" fill="#F472B6" opacity="0.2" />
  <circle cx="100" cy="100" r="60" fill="#22D3EE" opacity="0.2" />
  <circle cx="300" cy="250" r="40" fill="#A78BFA" opacity="0.2" />
  
  <!-- Survey form illustration -->
  <rect x="150" y="50" width="300" height="200" rx="10" fill="white" stroke="#9333EA" stroke-width="2" />
  
  <!-- Form header -->
  <rect x="150" y="50" width="300" height="40" rx="10" fill="#9333EA" />
  <text x="210" y="75" font-family="Arial" font-size="16" fill="white">Benefits Survey</text>
  
  <!-- Form lines -->
  <line x1="170" y1="110" x2="430" y2="110" stroke="#E9D5FF" stroke-width="2" />
  <line x1="170" y1="150" x2="430" y2="150" stroke="#E9D5FF" stroke-width="2" />
  <line x1="170" y1="190" x2="430" y2="190" stroke="#E9D5FF" stroke-width="2" />
  
  <!-- Checkmarks -->
  <circle cx="180" cy="130" r="10" fill="#22D3EE" fill-opacity="0.3" stroke="#22D3EE" stroke-width="2" />
  <path d="M175 130L180 135L185 125" stroke="#22D3EE" stroke-width="2" stroke-linecap="round" stroke-linejoin="round" />
  
  <circle cx="180" cy="170" r="10" fill="#F472B6" fill-opacity="0.3" stroke="#F472B6" stroke-width="2" />
  <path d="M175 170L180 175L185 165" stroke="#F472B6" stroke-width="2" stroke-linecap="round" stroke-linejoin="round" />
  
  <circle cx="180" cy="210" r="10" fill="#A78BFA" fill-opacity="0.3" stroke="#A78BFA" stroke-width="2" />
  <path d="M175 210L180 215L185 205" stroke="#A78BFA" stroke-width="2" stroke-linecap="round" stroke-linejoin="round" />
  
  <!-- Form text placeholders -->
  <line x1="200" y1="130" x2="380" y2="130" stroke="#9333EA" stroke-width="2" stroke-opacity="0.3" />
  <line x1="200" y1="170" x2="320" y2="170" stroke="#9333EA" stroke-width="2" stroke-opacity="0.3" />
  <line x1="200" y1="210" x2="350" y2="210" stroke="#9333EA" stroke-width="2" stroke-opacity="0.3" />
  
  <!-- Benefits icons -->
  <!-- Health icon -->
  <circle cx="390" cy="130" r="10" fill="white" stroke="#F472B6" stroke-width="2" />
  <path d="M385 130H395 M390 125V135" stroke="#F472B6" stroke-width="2" stroke-linecap="round" />
  
  <!-- Retirement icon -->
  <circle cx="330" cy="170" r="10" fill="white" stroke="#A78BFA" stroke-width="2" />
  <path d="M325 168L330 163L335 168 M330 163V175" stroke="#A78BFA" stroke-width="2" stroke-linecap="round" />
  
  <!-- Wellbeing icon -->
  <circle cx="360" cy="210" r="10" fill="white" stroke="#22D3EE" stroke-width="2" />
  <path d="M355 210C355 210 357.5 215 360 215C362.5 215 365 210 365 210" stroke="#22D3EE" stroke-width="2" stroke-linecap="round" />
  
  <!-- Defs for gradient -->
  <defs>
    <linearGradient id="paint0_linear" x1="0" y1="0" x2="600" y2="300" gradientUnits="userSpaceOnUse">
      <stop offset="0" stop-color="#F5EFFF" />
      <stop offset="1" stop-color="#DBEAFE" />
    </linearGradient>
  </defs>
</svg>