<?xml version="1.0" encoding="UTF-8"?>
<svg width="150px" height="150px" viewBox="0 0 150 150" version="1.1" xmlns="http://www.w3.org/2000/svg" xmlns:xlink="http://www.w3.org/1999/xlink">
    <title>Health Benefit Icon</title>
    <defs>
        <linearGradient x1="0%" y1="0%" x2="100%" y2="100%" id="healthGradient">
            <stop stop-color="#A855F7" offset="0%"></stop>
            <stop stop-color="#EC4899" offset="100%"></stop>
        </linearGradient>
    </defs>
    <g id="Health-Benefit-Icon" stroke="none" stroke-width="1" fill="none" fill-rule="evenodd">
        <!-- Background circle -->
        <circle id="Background" fill="#FFFFFF" cx="75" cy="75" r="70"></circle>
        
        <!-- Heartbeat line -->
        <path d="M20,75 L45,75 L55,45 L70,105 L85,60 L95,75 L130,75" id="Heartbeat" stroke="url(#healthGradient)" stroke-width="6" stroke-linecap="round" stroke-linejoin="round"></path>
        
        <!-- Heart shape -->
        <path d="M75,120 C90,105 110,85 110,65 C110,50 100,40 85,40 C77,40 75,45 75,50 C75,45 73,40 65,40 C50,40 40,50 40,65 C40,85 60,105 75,120 Z" id="Heart" fill="#FADCE2" stroke="url(#healthGradient)" stroke-width="3"></path>
        
        <!-- Medical cross -->
        <rect id="Cross-Vertical" fill="#A855F7" x="70" y="55" width="10" height="30" rx="2"></rect>
        <rect id="Cross-Horizontal" fill="#A855F7" x="60" y="65" width="30" height="10" rx="2"></rect>
        
        <!-- Decorative elements -->
        <circle id="Dot-1" fill="#A855F7" opacity="0.2" cx="20" cy="40" r="10"></circle>
        <circle id="Dot-2" fill="#EC4899" opacity="0.2" cx="130" cy="40" r="8"></circle>
        <circle id="Dot-3" fill="#A855F7" opacity="0.2" cx="20" cy="110" r="8"></circle>
        <circle id="Dot-4" fill="#EC4899" opacity="0.2" cx="130" cy="110" r="10"></circle>
    </g>
</svg>